<svg width="200" height="200" viewBox="0 0 200 200" xmlns="http://www.w3.org/2000/svg">
  <!-- 背景圆 -->
  <circle cx="100" cy="100" r="95" fill="#f8f9fa" stroke="#e9ecef" stroke-width="2"/>
  
  <!-- 脸部 -->
  <circle cx="100" cy="100" r="80" fill="#ffeaa7"/>
  
  <!-- 眼睛 -->
  <circle cx="75" cy="85" r="8" fill="#2d3436"/>
  <circle cx="125" cy="85" r="8" fill="#2d3436"/>
  <circle cx="77" cy="83" r="3" fill="#ffffff"/>
  <circle cx="127" cy="83" r="3" fill="#ffffff"/>
  
  <!-- 嘴巴 -->
  <path d="M 80 120 Q 100 135 120 120" stroke="#e17055" stroke-width="3" fill="none" stroke-linecap="round"/>
  
  <!-- 脸颊 -->
  <circle cx="60" cy="110" r="12" fill="#fab1a0" opacity="0.6"/>
  <circle cx="140" cy="110" r="12" fill="#fab1a0" opacity="0.6"/>
  
  <!-- 头发 -->
  <path d="M 30 70 Q 50 20 100 25 Q 150 20 170 70 Q 165 45 140 40 Q 120 35 100 35 Q 80 35 60 40 Q 35 45 30 70" fill="#74b9ff"/>
  
  <!-- 文字标识 -->
  <text x="100" y="180" font-family="Arial, sans-serif" font-size="16" font-weight="bold" text-anchor="middle" fill="#636e72">藿藿</text>
</svg>